<?xml version="1.0" encoding="utf-8"?>
<?xml-stylesheet type="text/css" href="/CSS/mysvg.css" ?>

<!-- Generator: Adobe Illustrator 24.1.2, SVG Export Plug-In . SVG Version: 6.00 Build 0)  -->
<svg version="1.1" id="Layer_1" class="main" xmlns="http://www.w3.org/2000/svg" xmlns:xlink="http://www.w3.org/1999/xlink" x="0px" y="0px"

	 width="280px" height="54px" viewBox="0 0 280 54" style="enable-background:new 0 0 280 54;" xml:space="preserve">
<g>
	<path class="st0 border" d="M137,54C97.5,54,58,54,18.5,54.1c-7.9,0-13.8-2.7-17.3-9.9c-0.9-1.8-1.3-3.7-1.2-5.8c0-7.2,0-14.5,0-21.7
		C0,6.7,6.8-0.1,16.9-0.1c65.8,0,131.7,0,197.5,0c14.2,0,28.5,0.3,42.7-0.1c8.7-0.3,17,7.4,16.9,15.9c-0.1,7.6,0.2,15.2-0.1,22.8
		c-0.3,9-6.9,15.4-16,15.4c-31.9,0.1-63.7,0.1-95.6,0.1C153.9,54,145.4,54,137,54z M136.8,51.1c39.4,0,78.7-0.2,118.1,0.1
		c9.7,0.1,16.9-6.3,16.3-16.4c-0.3-5.8-0.1-11.7-0.1-17.6c0-4.6-1.6-8.5-5.3-11.5c-3.3-2.7-7.2-3.1-11.3-3.1
		c-78.5,0-156.9,0-235.4,0c-1.2,0-2.5,0-3.7,0.1C8.6,3.4,3.1,8.9,3,15.8c-0.2,7.5,0,15,0,22.4c0,3.2,1.4,5.8,3.4,8.1
		c3.4,3.9,7.8,4.8,12.8,4.8C58.4,51.1,97.6,51.1,136.8,51.1z"/>
	<path class="st0 monitor" d="M21.8,44.5c0-3.1,1.5-4.8,4.3-5.5c0.8-0.2,1.9,0.1,1.9-1.3c-0.1-1.6-1.4-1.1-2.3-1.1c-2.9-0.1-5.7-0.1-8.6,0
		c-2.1,0.1-2.9-0.7-2.8-2.9c0.1-6.9,0.1-13.7,0-20.6c0-2.1,0.5-2.8,2.7-2.8c9.9,0.1,19.7,0.1,29.6,0c2.3,0,3.1,0.7,3,3
		c-0.1,6.6-0.1,13.2,0,19.8c0,2.6-1,3.6-3.6,3.5c-2.7-0.1-5.5,0-8.2,0c-0.8,0-1.9-0.1-1.9,1.2c0,1.1,0.8,1,1.5,1.2
		c2.7,0.6,4.4,2.2,4.5,5.6C35.2,44.5,28.6,44.5,21.8,44.5z M31.6,12.6c-4.1,0-8.2,0.1-12.3,0c-1.9,0-2.7,0.5-2.6,2.5
		c0.1,4.1,0.1,8.2,0,12.3c-0.1,1.9,0.5,2.6,2.5,2.6c8.4-0.1,16.7-0.1,25.1,0c1.9,0,2.7-0.5,2.6-2.5c-0.1-4.1-0.2-8.2,0-12.3
		c0.1-2.3-0.9-2.7-2.9-2.6C39.8,12.7,35.7,12.6,31.6,12.6z M46.2,33.5c-0.1-0.2-0.1-0.3-0.2-0.5c-9.5,0-19,0-28.5,0
		c0,0.2,0,0.3,0,0.5C27.1,33.5,36.6,33.5,46.2,33.5z M38.1,42.5c0-0.2,0-0.3,0-0.5c-4.2,0-8.3,0-12.5,0c0,0.2,0,0.3,0,0.5
		C29.8,42.5,33.9,42.5,38.1,42.5z M32.9,37.7c0-0.7-0.4-1.1-1.1-1.1c-0.7,0-1.1,0.3-1.1,1.1c0,0.7,0.4,1.1,1.1,1.1
		C32.6,38.8,33,38.5,32.9,37.7z"/>
	<path class="st1 letter-O text" d="M231.1,27.2c0,9.5-6.7,16.7-15.4,16.8c-8.8,0.1-16.2-7.7-16.2-17.1c0-9.3,7-17,15.9-16.9
		C225.9,10.1,231.8,18.7,231.1,27.2z M204.7,26.6c-0.4,8.1,4.7,12.9,11.4,12.7c6.5-0.2,10.7-6,10.4-13.5c-0.3-6.7-5-11.1-11.5-11
		C208.7,15,204.7,19.6,204.7,26.6z"/>
	<path class="st1 letter-A text" d="M114.8,38.4c0,1.3-0.4,2.3-1.7,2.6c-1.3,0.3-2.5-0.2-2.8-1.3c-1.2-5.9-5.5-5.4-10-5.5
		c-3.7-0.1-6.6,0.2-7.5,4.6c-0.4,1.7-1.8,3-3.7,2.1c-1.7-0.8-1.3-2.4-0.6-3.9c3.4-8,6.7-16.1,10-24.1c0.5-1.2,1-2.3,2.5-2.5
		c1.4-0.1,2.5,0.7,3,1.9c3.6,8.4,7.1,16.7,10.6,25.1C114.8,37.8,114.8,38.2,114.8,38.4z M101.4,20c-1.9,2.9-2.9,5.8-4,8.9
		c2.9,0.5,5.3,0.4,7.9,0.1C104.4,25.8,103.2,23,101.4,20z"/>
	<path class="st0 z-leg-1 text" d="M144.8,12.2c1.7-0.5,3,0,3.7,1.6c0.7,1.7-0.2,2.8-1.3,4c-5.1,5.3-10.2,10.6-15.3,15.9c-0.9,1-1.8,2-3.4,3.7
		c3.2,0,5.6,0,8,0c3.6,0,7.2,0,10.9,0.1c1.4,0,2.5,0.6,2.6,2.1c0,1.5-1,2.2-2.4,2.3c-8.4,0.1-16.7,0.2-25.1,0.1
		c-2.3,0-3.3-2.2-2.1-4.3c0.5-0.8,1.3-1.5,2-2.2c6.2-6.5,12.4-13,18.5-19.5C142.2,14.6,143.5,13.4,144.8,12.2z"/>
	<path class="st0 z-leg-2 text" d="M171.1,41.9c-1.5,0.1-3.1,0.2-3.9-1.4c-0.9-1.8,0.2-3,1.3-4.3c5-5.7,10-11.4,15-17.1c0.8-0.9,1.9-1.6,2.2-3.3
		c-5.1,0-10,0-14.9,0c-1.6,0-4,0.6-4.1-1.9c-0.1-2.6,2.3-2,3.9-2c6.7-0.1,13.5-0.1,20.2-0.2c1.3,0,2.5,0.2,3.1,1.5
		c0.8,1.5,0.1,2.6-0.8,3.7c-5,5.7-10,11.4-15,17.2c-1.1,1.3-2.1,2.7-3.2,4.1C173.3,39,172.2,40.4,171.1,41.9z"/>
	<path class="st1 letter-V text" d="M248.4,35c2.9-7.3,5.4-13.6,8-19.9c0.2-0.5,0.3-1,0.5-1.4c0.7-1.4,1.5-2.8,3.4-1.9c1.7,0.8,1.2,2.2,0.6,3.5
		c-2.9,6.7-5.8,13.5-8.6,20.2c-0.7,1.6-1.2,3.3-2.1,4.8c-1.3,2.2-3.1,2.1-4.2-0.2c-3.7-8.4-7.2-16.9-10.8-25.4
		c-0.6-1.4-0.3-2.5,1.1-3.1c1.6-0.7,2.4,0.5,2.9,1.6c2.1,4.9,4.1,9.9,6.2,14.8C246.2,30,247.1,32,248.4,35z"/>
	<path class="st0 separator" d="M69,27c0-6,0-12,0-18c0-1.5-0.2-3.3,2-3.2c2,0.1,1.8,1.7,1.8,3.1c0,12.2-0.1,24.4-0.1,36.7
		c0,1.5,0.1,3.3-2.1,3.2c-2.1,0-1.7-1.8-1.7-3.1c0-6.2,0-12.5,0-18.7C68.9,27,68.9,27,69,27z"/>
	<path class="st0 letter-I text" d="M160.3,28c0,3.9,0,7.7,0,11.6c0,1.7,0,3.6-2.2,3.7c-2.4,0.1-2.3-1.8-2.3-3.5c0-8.1,0-16.2,0-24.3
		c0-1.6,0.1-3.3,2.1-3.3c2.2,0,2.4,1.8,2.4,3.5C160.3,19.8,160.3,23.9,160.3,28C160.3,28,160.3,28,160.3,28z"/>
	<path class="st1 letter-Z-1 text" d="M144.8,12.2c-1.3,1.2-2.7,2.4-4,3.7c-5.7,0-11.5,0-17.2-0.1c-1.5,0-3.4,0.2-3.4-1.9c-0.1-2.1,1.8-2,3.3-2
		C130.6,12,137.7,11.6,144.8,12.2z"/>
	<path class="st1 letter-Z-2 text" d="M171.1,41.9c1.1-1.5,2.2-2.9,3.7-3.9c5.8,0,11.7,0,17.5,0.1c1.5,0,3.3-0.2,3.3,1.9c0,2.1-1.9,1.9-3.3,1.9
		C185.3,41.9,178.2,41.9,171.1,41.9z"/>
	<path class="st0 monitor" d="M33.3,17.5c0.3,0.4,1,0.8,0.9,1.1c-0.5,2.3-1.6,4.4-3.1,6.2c-0.4,0.4-1,0.2-1.3-0.2c-1.1-1.2,0-2.2,0.4-3
		C31,20.2,31.2,18.2,33.3,17.5z"/>
	<path class="st0 monitor" d="M26.7,17.7c0.7,0.1,1.4,1,1,1.2c-3.4,1.6,1.8,4.7-1,5.9c-1.2,0.5-2.2-1.4-3.1-2.3c-0.7-0.7-0.7-1.6,0-2.3
		C24.5,19.2,25.3,17.9,26.7,17.7z"/>
	<path class="st0 monitor" d="M40.5,21.4c-0.7,1.5-1.7,3-3.5,3.4c-1.5,0.3-1.4-0.9-0.9-1.9c0.4-0.8,1.7-1.2,0.6-2.4
		c-0.7-0.7-1.4-1.7-0.3-2.5c1-0.7,1.8,0.3,2.5,1C39.5,19.6,40.4,20.2,40.5,21.4z"/>
</g>
</svg>
